<?xml version="1.0" encoding="UTF-8"?>
<svg id="Layer_1" xmlns="http://www.w3.org/2000/svg" version="1.1" viewBox="0 0 25 25">
  <!-- Generator: Adobe Illustrator 29.1.0, SVG Export Plug-In . SVG Version: 2.1.0 Build 142)  -->
  <g id="moon">
    <path d="M22.9,18.2c-.1-.2-.3-.2-.5-.2-4.5,1.5-9.4-.5-11.5-4.8-1.8-4-.6-8.7,2.8-11.4.2-.1.2-.3.2-.6,0-.2-.3-.3-.5-.3-3.2,0-6.2,1.4-8.4,3.8-4.3,4.7-3.9,12,.8,16.3,2.1,1.9,4.8,2.9,7.6,3,3.8,0,7.4-2,9.5-5.2.1-.2.1-.4,0-.6ZM13.4,23c-5.8,0-10.5-4.8-10.4-10.6,0-2.6,1-5,2.7-6.9,1.6-1.8,3.9-3,6.3-3.3-3,3.1-3.8,7.7-2,11.6,2,4.3,6.7,6.6,11.3,5.7-2,2.3-4.9,3.6-7.9,3.6Z"/>
  </g>
</svg>