<?xml version="1.0" encoding="UTF-8"?>
<svg id="Layer_1" xmlns="http://www.w3.org/2000/svg" version="1.1" viewBox="0 0 425 425">
  <!-- Generator: Adobe Illustrator 29.1.0, SVG Export Plug-In . SVG Version: 2.1.0 Build 142)  -->
  <path d="M212.5,272.2c-32.9,0-59.7-26.8-59.7-59.7s26.8-59.7,59.7-59.7,59.7,26.8,59.7,59.7-26.8,59.7-59.7,59.7h0ZM212.5,135.2c-42.6,0-77.3,34.7-77.3,77.3s34.7,77.3,77.3,77.3,77.3-34.7,77.3-77.3-34.7-77.3-77.3-77.3h0Z"/>
  <path d="M203.7,303.6v45.9c0,4.9,3.9,8.8,8.8,8.8s8.8-3.9,8.8-8.8v-45.9c0-4.9-3.9-8.8-8.8-8.8s-8.8,3.9-8.8,8.8h0Z"/>
  <path d="M212.5,130.2c4.9,0,8.8-3.9,8.8-8.8v-45.9c0-4.9-3.9-8.8-8.8-8.8s-8.8,3.9-8.8,8.8v45.9c0,4.9,3.9,8.8,8.8,8.8h0Z"/>
  <path d="M253.6,283.8c-4.2,2.4-5.6,7.8-3.2,12l23,39.8c1.6,2.8,4.6,4.4,7.6,4.4s3-.4,4.4-1.2c4.2-2.4,5.6-7.8,3.2-12l-23-39.8c-2.4-4.2-7.8-5.6-12-3.2h0Z"/>
  <path d="M159.4,138c1.6,2.8,4.6,4.4,7.6,4.4s3-.4,4.4-1.2c4.2-2.4,5.6-7.8,3.2-12l-23-39.7c-2.4-4.2-7.8-5.6-12-3.2-4.2,2.4-5.6,7.8-3.2,12l23,39.8h0Z"/>
  <path d="M331.2,289.8c3,0,6-1.6,7.6-4.4,2.4-4.2,1-9.6-3.2-12l-39.8-23c-4.2-2.4-9.6-1-12,3.2-2.4,4.2-1,9.6,3.2,12l39.8,23c1.4.8,2.9,1.2,4.4,1.2h0Z"/>
  <path d="M89.4,151.6l39.7,23c1.4.8,2.9,1.2,4.4,1.2,3,0,6-1.6,7.6-4.4,2.4-4.2,1-9.6-3.2-12l-39.7-23c-4.2-2.4-9.6-1-12,3.2-2.4,4.2-1,9.6,3.2,12h0Z"/>
  <path d="M294.8,212.5c0,4.9,3.9,8.8,8.8,8.8h45.9c4.9,0,8.8-3.9,8.8-8.8s-3.9-8.8-8.8-8.8h-45.9c-4.9,0-8.8,3.9-8.8,8.8h0Z"/>
  <path d="M130.2,212.5c0-4.9-3.9-8.8-8.8-8.8h-45.9c-4.9,0-8.8,3.9-8.8,8.8s3.9,8.8,8.8,8.8h45.9c4.9,0,8.8-3.9,8.8-8.8h0Z"/>
  <path d="M283.8,171.3c1.6,2.8,4.6,4.4,7.6,4.4s3-.4,4.4-1.2l39.7-23c4.2-2.4,5.6-7.8,3.2-12-2.4-4.2-7.8-5.6-12-3.2l-39.8,23c-4.2,2.4-5.6,7.8-3.2,12h0Z"/>
  <path d="M141.2,253.7c-2.4-4.2-7.8-5.6-12-3.2l-39.8,23c-4.2,2.4-5.6,7.8-3.2,12,1.6,2.8,4.6,4.4,7.6,4.4s3-.4,4.4-1.2l39.8-23c4.2-2.4,5.6-7.8,3.2-12h0Z"/>
  <path d="M253.6,141.2c1.4.8,2.9,1.2,4.4,1.2,3,0,6-1.6,7.6-4.4l23-39.8c2.4-4.2,1-9.6-3.2-12-4.2-2.4-9.6-1-12,3.2l-23,39.7c-2.4,4.2-1,9.6,3.2,12h0Z"/>
  <path d="M139.6,338.8c1.4.8,2.9,1.2,4.4,1.2,3,0,6-1.6,7.6-4.4l23-39.8c2.4-4.2,1-9.6-3.2-12-4.2-2.4-9.6-1-12,3.2l-23,39.8c-2.4,4.2-1,9.6,3.2,12h0Z"/>
</svg>